<mxfile host="app.diagrams.net" agent="Mozilla/5.0 (Windows NT 10.0; Win64; x64) AppleWebKit/537.36 (KHTML, like Gecko) Chrome/130.0.0.0 Safari/537.36" version="24.8.3">
  <diagram id="C5RBs43oDa-KdzZeNtuy" name="Page-1">
    <mxGraphModel dx="548" dy="308" grid="1" gridSize="10" guides="1" tooltips="1" connect="1" arrows="1" fold="1" page="1" pageScale="1" pageWidth="827" pageHeight="1169" math="0" shadow="0">
      <root>
        <mxCell id="WIyWlLk6GJQsqaUBKTNV-0" />
        <mxCell id="WIyWlLk6GJQsqaUBKTNV-1" parent="WIyWlLk6GJQsqaUBKTNV-0" />
        <mxCell id="RRE05Ik68FNEsQR4TEEK-0" value="Diem" style="swimlane;fontStyle=2;align=center;verticalAlign=top;childLayout=stackLayout;horizontal=1;startSize=26;horizontalStack=0;resizeParent=1;resizeLast=0;collapsible=1;marginBottom=0;rounded=0;shadow=0;strokeWidth=1;" vertex="1" parent="WIyWlLk6GJQsqaUBKTNV-1">
          <mxGeometry x="230" y="130" width="170" height="300" as="geometry">
            <mxRectangle x="230" y="130" width="160" height="26" as="alternateBounds" />
          </mxGeometry>
        </mxCell>
        <mxCell id="RRE05Ik68FNEsQR4TEEK-1" value="X : int" style="text;align=left;verticalAlign=top;spacingLeft=4;spacingRight=4;overflow=hidden;rotatable=0;points=[[0,0.5],[1,0.5]];portConstraint=eastwest;" vertex="1" parent="RRE05Ik68FNEsQR4TEEK-0">
          <mxGeometry y="26" width="170" height="26" as="geometry" />
        </mxCell>
        <mxCell id="RRE05Ik68FNEsQR4TEEK-2" value="Y : int" style="text;align=left;verticalAlign=top;spacingLeft=4;spacingRight=4;overflow=hidden;rotatable=0;points=[[0,0.5],[1,0.5]];portConstraint=eastwest;rounded=0;shadow=0;html=0;" vertex="1" parent="RRE05Ik68FNEsQR4TEEK-0">
          <mxGeometry y="52" width="170" height="26" as="geometry" />
        </mxCell>
        <mxCell id="RRE05Ik68FNEsQR4TEEK-4" value="" style="line;html=1;strokeWidth=1;align=left;verticalAlign=middle;spacingTop=-1;spacingLeft=3;spacingRight=3;rotatable=0;labelPosition=right;points=[];portConstraint=eastwest;" vertex="1" parent="RRE05Ik68FNEsQR4TEEK-0">
          <mxGeometry y="78" width="170" height="8" as="geometry" />
        </mxCell>
        <mxCell id="RRE05Ik68FNEsQR4TEEK-6" value="Gettungdo(): int" style="text;align=left;verticalAlign=top;spacingLeft=4;spacingRight=4;overflow=hidden;rotatable=0;points=[[0,0.5],[1,0.5]];portConstraint=eastwest;rounded=0;shadow=0;html=0;" vertex="1" parent="RRE05Ik68FNEsQR4TEEK-0">
          <mxGeometry y="86" width="170" height="24" as="geometry" />
        </mxCell>
        <mxCell id="RRE05Ik68FNEsQR4TEEK-5" value="Gethoanhdo(): int" style="text;align=left;verticalAlign=top;spacingLeft=4;spacingRight=4;overflow=hidden;rotatable=0;points=[[0,0.5],[1,0.5]];portConstraint=eastwest;" vertex="1" parent="RRE05Ik68FNEsQR4TEEK-0">
          <mxGeometry y="110" width="170" height="20" as="geometry" />
        </mxCell>
        <mxCell id="RRE05Ik68FNEsQR4TEEK-10" value="Diem(): void" style="text;align=left;verticalAlign=top;spacingLeft=4;spacingRight=4;overflow=hidden;rotatable=0;points=[[0,0.5],[1,0.5]];portConstraint=eastwest;" vertex="1" parent="RRE05Ik68FNEsQR4TEEK-0">
          <mxGeometry y="130" width="170" height="20" as="geometry" />
        </mxCell>
        <mxCell id="RRE05Ik68FNEsQR4TEEK-11" value="Diem(int X, int Y): void" style="text;align=left;verticalAlign=top;spacingLeft=4;spacingRight=4;overflow=hidden;rotatable=0;points=[[0,0.5],[1,0.5]];portConstraint=eastwest;" vertex="1" parent="RRE05Ik68FNEsQR4TEEK-0">
          <mxGeometry y="150" width="170" height="20" as="geometry" />
        </mxCell>
        <mxCell id="RRE05Ik68FNEsQR4TEEK-12" value="Diem(const Diem &amp;W): void" style="text;align=left;verticalAlign=top;spacingLeft=4;spacingRight=4;overflow=hidden;rotatable=0;points=[[0,0.5],[1,0.5]];portConstraint=eastwest;" vertex="1" parent="RRE05Ik68FNEsQR4TEEK-0">
          <mxGeometry y="170" width="170" height="20" as="geometry" />
        </mxCell>
        <mxCell id="RRE05Ik68FNEsQR4TEEK-13" value="Diem(const Diem &amp;W): void" style="text;align=left;verticalAlign=top;spacingLeft=4;spacingRight=4;overflow=hidden;rotatable=0;points=[[0,0.5],[1,0.5]];portConstraint=eastwest;" vertex="1" parent="RRE05Ik68FNEsQR4TEEK-0">
          <mxGeometry y="190" width="170" height="20" as="geometry" />
        </mxCell>
        <mxCell id="RRE05Ik68FNEsQR4TEEK-14" value="Xuat(): void" style="text;align=left;verticalAlign=top;spacingLeft=4;spacingRight=4;overflow=hidden;rotatable=0;points=[[0,0.5],[1,0.5]];portConstraint=eastwest;" vertex="1" parent="RRE05Ik68FNEsQR4TEEK-0">
          <mxGeometry y="210" width="170" height="20" as="geometry" />
        </mxCell>
        <mxCell id="RRE05Ik68FNEsQR4TEEK-15" value="Settungdo(int Y): void" style="text;align=left;verticalAlign=top;spacingLeft=4;spacingRight=4;overflow=hidden;rotatable=0;points=[[0,0.5],[1,0.5]];portConstraint=eastwest;" vertex="1" parent="RRE05Ik68FNEsQR4TEEK-0">
          <mxGeometry y="230" width="170" height="20" as="geometry" />
        </mxCell>
        <mxCell id="RRE05Ik68FNEsQR4TEEK-16" value="Sethoanhdo(int X): void" style="text;align=left;verticalAlign=top;spacingLeft=4;spacingRight=4;overflow=hidden;rotatable=0;points=[[0,0.5],[1,0.5]];portConstraint=eastwest;" vertex="1" parent="RRE05Ik68FNEsQR4TEEK-0">
          <mxGeometry y="250" width="170" height="20" as="geometry" />
        </mxCell>
        <mxCell id="RRE05Ik68FNEsQR4TEEK-17" value="Tinhtien(int dx, int dy): void" style="text;align=left;verticalAlign=top;spacingLeft=4;spacingRight=4;overflow=hidden;rotatable=0;points=[[0,0.5],[1,0.5]];portConstraint=eastwest;" vertex="1" parent="RRE05Ik68FNEsQR4TEEK-0">
          <mxGeometry y="270" width="170" height="20" as="geometry" />
        </mxCell>
      </root>
    </mxGraphModel>
  </diagram>
</mxfile>
